<svg width="664" height="194" viewBox="0 0 664 194" fill="none" xmlns="http://www.w3.org/2000/svg">
<path d="M40.3099 40.84C59.9699 39.42 81.6299 50.88 93.2399 68.62C95.0999 66.44 96.7899 64.3 98.6599 62.29C110.31 49.82 131.96 51.98 141.77 65.6C148.29 74.65 151.63 84.74 155.74 94.61C158.58 101.43 161.23 108.39 165.09 114.78C168.88 121.05 175.39 121.04 179.22 114.78C182.43 109.53 184.17 103.05 185.34 97.23C187.11 88.45 188.92 80.17 193.64 72.14C199.51 62.15 207.47 53.62 218.82 47.73C227.86 43.04 237.41 40.25 248.33 40.61C248.33 47.2 248.33 53.56 248.33 59.91C223.33 61.09 207.82 80.57 208.41 97.93C208.99 114.96 224.37 133.25 248.34 134.06C248.34 140.31 248.34 146.58 248.34 152.87C233.81 155.95 208.04 144.66 196.4 126.17C194.75 127.99 190.27 138.43 173.42 139.89C156.31 141.18 147.33 132.59 141.83 120.28C136.9 109.25 133.03 97.87 128.58 86.68C127.61 84.24 126.41 81.8 124.86 79.6C120.83 73.9 113.86 75.03 109.15 81.69C104.14 88.78 102.75 96.69 101.38 104.64C99.2999 116.72 93.7999 127.33 84.0299 136.34C75.6699 144.05 66.0499 149.84 54.0699 152.27C49.7599 153.14 45.2799 153.35 40.4299 153.91C40.4299 147 40.4299 140.65 40.4299 133.97C52.1399 134.15 61.8599 129.8 69.3299 122.32C77.5999 114.03 81.8299 104.17 80.3399 93.02C78.3599 78.26 64.6099 61.13 40.2999 59.9C40.3099 53.63 40.3099 47.36 40.3099 40.84Z" fill="#29F6A7"/>
<path d="M268.35 20.67V173.89H20.34V20.67H268.35ZM288.24 0.780029H0.449951V193.78H288.24V0.780029Z" fill="#29F6A7"/>
<path d="M365.174 36.6994C390.644 36.6994 411.293 57.7221 411.293 83.6546V110.654C411.293 136.587 390.644 157.61 365.174 157.61C361.172 157.61 357.291 157.091 353.589 156.116L353.589 159.303C353.589 178.274 338.412 193.689 319.572 193.995L319 194V90.698L319.053 90.6966L319.054 83.6546C319.054 57.7221 339.702 36.6994 365.174 36.6994ZM571.707 36.6994C597.193 36.6994 617.854 57.8422 617.854 83.9229V111.077C617.854 137.158 597.193 158.301 571.707 158.301C546.221 158.301 525.561 137.158 525.561 111.077V83.9229C525.561 57.8422 546.221 36.6994 571.707 36.6994ZM468.427 34.4682C493.912 34.4682 514.573 55.611 514.573 81.6921V108.846C514.573 134.926 493.912 156.069 468.427 156.069C442.94 156.069 422.28 134.926 422.28 108.846V81.6921C422.28 55.611 442.94 34.4682 468.427 34.4682ZM664 1V120.801C664 140.084 648.572 155.753 629.422 156.065L628.841 156.069V36.2683C628.841 16.7902 644.582 1 664 1ZM571.707 72.1175C565.336 72.1175 560.171 77.4033 560.171 83.9229V111.077C560.171 117.597 565.336 122.883 571.707 122.883C578.079 122.883 583.244 117.597 583.244 111.077V83.9229C583.244 77.4033 578.079 72.1175 571.707 72.1175ZM365.174 71.916C358.806 71.916 353.644 77.1718 353.644 83.6546V110.654C353.644 117.137 358.806 122.393 365.174 122.393C371.541 122.393 376.703 117.137 376.703 110.654V83.6546C376.703 77.1718 371.541 71.916 365.174 71.916ZM468.427 69.886C462.055 69.886 456.89 75.1718 456.89 81.6921V108.846C456.89 115.366 462.055 120.652 468.427 120.652C474.798 120.652 479.963 115.366 479.963 108.846V81.6921C479.963 75.1718 474.798 69.886 468.427 69.886Z" fill="white"/>
</svg>
